<?xml version="1.0" encoding="UTF-8"?><svg version="1.1" width="777px" height="164px" viewBox="0 0 777.0 164.0" xmlns="http://www.w3.org/2000/svg" xmlns:xlink="http://www.w3.org/1999/xlink"><defs><clipPath id="i0"><path d="M388.5,0 C603.062625,0 777,26.1695675 777,58.451365 C777,90.7331625 603.062625,116.90273 388.5,116.90273 C173.937375,116.90273 0,90.7331625 0,58.451365 C0,26.1695675 173.937375,0 388.5,0 Z"></path></clipPath><clipPath id="i1"><path d="M97.125,0 C150.765656,0 194.25,6.63851517 194.25,14.8275386 C194.25,17.6044607 182.932115,18.2207418 170.693251,19.3325609 L169.671437,19.4264165 C169.33027,19.458122 168.988615,19.4902668 168.646695,19.5229078 L167.620365,19.6223765 C166.764798,19.7066025 165.908968,19.7942857 165.056357,19.8863157 L164.034992,19.998895 C161.486555,20.2858441 158.979622,20.6151164 156.608203,21.0107296 C153.934962,21.4566946 151.361657,21.964285 148.821972,22.5048409 L147.7354,22.7384424 C147.373767,22.8169266 147.012626,22.8960001 146.651785,22.9755792 L145.569967,23.2157498 C144.849096,23.3767634 144.12865,23.5394654 143.407081,23.7031873 L142.323694,23.9494516 C141.962155,24.0317389 141.600142,24.1141977 141.237462,24.1967443 L140.147228,24.4445642 C128.674686,27.047686 116.348249,29.6550773 97.125,29.6550773 C75.1302941,29.6550773 62.3341731,26.2222714 49.3993306,23.3056516 L47.8032731,22.9489577 C47.4481494,22.8703954 47.0926336,22.7923424 46.7365336,22.7148798 L45.6662891,22.4843448 C43.1640667,21.9509421 40.6238109,21.450452 37.9796595,21.0107296 C35.4402982,20.5884338 32.7412533,20.2419339 29.9986311,19.9419537 L28.9683319,19.8315845 C28.7963505,19.8135341 28.6242556,19.795651 28.4520755,19.7779282 L27.4181994,19.6734577 C27.0733844,19.6392371 26.7284555,19.6056005 26.3836394,19.5724906 L25.3497563,19.474684 C25.0053926,19.4425705 24.6613684,19.4109265 24.3179106,19.3796948 L23.289463,19.28718 C11.1449714,18.2057067 0,17.5718785 0,14.8275386 C0,13.6227953 6.07938066,11.7976947 12.5469861,10.0792153 L13.324598,9.87355604 C13.9735537,9.70267738 14.6241153,9.53315572 15.2705915,9.36571805 L16.0440377,9.16583968 C20.2831998,8.07252214 24.2452405,7.08264972 26.2939751,6.40522584 C41.682202,1.31703538 58.0046008,0 97.125,0 Z"></path></clipPath><filter id="i2" x="-123.363612%" y="-83.6195371%" filterUnits="userSpaceOnUse" width="276.233693%" height="239.365895%"><feGaussianBlur stdDeviation="11" in="SourceAlpha" result="i3"></feGaussianBlur><feOffset dx="0" dy="11" in="i3" result="i4"></feOffset><feColorMatrix values="0 0 0 1.0 0 0 0 0 1.0 0 0 0 0 1.0 0 0 0 0 1.0 0" type="matrix" in="i4"></feColorMatrix></filter><clipPath id="i5"><path d="M8.87259431,0 C15.2411537,5.65709019 18.422655,11.6206973 18.4170981,17.8908212 C18.4087483,27.2960071 14.6457389,34.9237568 8.84161179,34.9289203 C3.03748472,34.9340787 -0.0083254603,27.3123834 0,17.9071974 C0.00557309592,11.6370735 2.96310453,5.66800768 8.87259431,0 Z"></path></clipPath><linearGradient id="i6" x1="9.20854907px" y1="84.7562503px" x2="38.6961035px" y2="34.9289203px" gradientUnits="userSpaceOnUse"><stop stop-color="#FFFFFF" offset="0%"></stop><stop stop-color="#BDF5F9" offset="100%"></stop></linearGradient><filter id="i7" x="-123.366768%" y="-83.6163552%" filterUnits="userSpaceOnUse" width="276.238226%" height="239.360592%"><feGaussianBlur stdDeviation="11" in="SourceAlpha" result="i8"></feGaussianBlur><feOffset dx="0" dy="11" in="i8" result="i9"></feOffset><feColorMatrix values="0 0 0 1.0 0 0 0 0 1.0 0 0 0 0 1.0 0 0 0 0 1.0 0" type="matrix" in="i9"></feColorMatrix></filter><clipPath id="i10"><path d="M8.84243633,0 C15.2197418,5.66806557 18.4107634,11.63743 18.4155012,17.9080934 C18.4225878,27.3140885 14.6724182,34.9363128 8.86879163,34.9319246 C3.06516511,34.9275325 0.00710228501,27.300158 0,17.894163 C-0.0047272749,11.6234996 2.9427515,5.6587786 8.84243633,0 Z"></path></clipPath><linearGradient id="i11" x1="9.20775061px" y1="84.7635402px" x2="38.6927482px" y2="34.9319246px" gradientUnits="userSpaceOnUse"><stop stop-color="#FFFFFF" offset="0%"></stop><stop stop-color="#BDF5F9" offset="100%"></stop></linearGradient><filter id="i12" x="-123.320888%" y="-86.3925332%" filterUnits="userSpaceOnUse" width="276.172668%" height="243.987555%"><feGaussianBlur stdDeviation="11" in="SourceAlpha" result="i13"></feGaussianBlur><feOffset dx="0" dy="11" in="i13" result="i14"></feOffset><feColorMatrix values="0 0 0 1.0 0 0 0 0 1.0 0 0 0 0 1.0 0 0 0 0 1.0 0" type="matrix" in="i14"></feColorMatrix></filter><clipPath id="i15"><path d="M14.8838138,0 C17.2444746,4.42014341 18.4294342,9.68758867 18.4386925,15.8023358 C18.4525035,24.9744565 14.7030852,32.4042505 8.89216112,32.3954833 C3.08123703,32.3867005 0.0138620924,24.9466126 0,15.7744919 C-0.00922424472,9.65974474 4.95204703,4.40158078 14.8838138,0 Z"></path></clipPath><linearGradient id="i16" x1="9.21934624px" y1="78.6087765px" x2="38.7414753px" y2="32.3954833px" gradientUnits="userSpaceOnUse"><stop stop-color="#FFFFFF" offset="0%"></stop><stop stop-color="#BDF5F9" offset="100%"></stop></linearGradient><filter id="i17" x="-122.377532%" y="-89.6625292%" filterUnits="userSpaceOnUse" width="274.825046%" height="249.437549%"><feGaussianBlur stdDeviation="11" in="SourceAlpha" result="i18"></feGaussianBlur><feOffset dx="0" dy="11" in="i18" result="i19"></feOffset><feColorMatrix values="0 0 0 1.0 0 0 0 0 1.0 0 0 0 0 1.0 0 0 0 0 1.0 0" type="matrix" in="i19"></feColorMatrix></filter><clipPath id="i20"><path d="M0,0 C12.6225668,2.54255306 18.9292455,6.87136416 18.9200363,12.9864333 C18.9062023,22.159037 15.1345486,29.6005701 9.32393056,29.6093368 C3.51331252,29.618088 0.468532069,22.1868301 0.482355984,13.0142264 L0.482091771,11.888475 C0.470809694,6.36383915 0.310112437,2.40101414 0,0 Z"></path></clipPath><linearGradient id="i21" x1="9.46001816px" y1="71.8480942px" x2="39.7528252px" y2="29.6093368px" gradientUnits="userSpaceOnUse"><stop stop-color="#FFFFFF" offset="0%"></stop><stop stop-color="#BDF5F9" offset="100%"></stop></linearGradient><filter id="i22" x="-114.719199%" y="-90.3707332%" filterUnits="userSpaceOnUse" width="263.88457%" height="250.617889%"><feGaussianBlur stdDeviation="11" in="SourceAlpha" result="i23"></feGaussianBlur><feOffset dx="0" dy="11" in="i23" result="i24"></feOffset><feColorMatrix values="0 0 0 1.0 0 0 0 0 1.0 0 0 0 0 1.0 0 0 0 0 1.0 0" type="matrix" in="i24"></feColorMatrix></filter><clipPath id="i25"><path d="M0,0 C15.4228136,2.15798586 23.1296152,6.29451336 23.1204048,12.4095825 C23.1065726,21.5821862 19.3349189,29.0237193 13.5243009,29.032486 C7.71368284,29.0412372 4.66890239,21.6099793 4.6827263,12.4373756 C4.69194225,6.3223064 3.13103348,2.17651455 0,0 Z"></path></clipPath><linearGradient id="i26" x1="11.5602024px" y1="70.4483455px" x2="48.5782054px" y2="29.032486px" gradientUnits="userSpaceOnUse"><stop stop-color="#FFFFFF" offset="0%"></stop><stop stop-color="#BDF5F9" offset="100%"></stop></linearGradient><filter id="i27" x="-114.701985%" y="-90.3853245%" filterUnits="userSpaceOnUse" width="263.859978%" height="250.642207%"><feGaussianBlur stdDeviation="11" in="SourceAlpha" result="i28"></feGaussianBlur><feOffset dx="0" dy="11" in="i28" result="i29"></feOffset><feColorMatrix values="0 0 0 1.0 0 0 0 0 1.0 0 0 0 0 1.0 0 0 0 0 1.0 0" type="matrix" in="i29"></feColorMatrix></filter><clipPath id="i30"><path d="M0,0 C15.4293501,2.15752345 23.1395095,6.29253713 23.1304783,12.4050411 C23.1169155,21.573797 19.3439021,29.0121004 13.530846,29.0206963 C7.71778996,29.0292773 4.67150915,21.601049 4.685064,12.4322931 C4.69410056,6.31978921 3.13241256,2.1756915 0,0 Z"></path></clipPath><linearGradient id="i31" x1="11.5652391px" y1="70.4197375px" x2="48.5993707px" y2="29.0206963px" gradientUnits="userSpaceOnUse"><stop stop-color="#FFFFFF" offset="0%"></stop><stop stop-color="#BDF5F9" offset="100%"></stop></linearGradient><filter id="i32" x="-102.740074%" y="-76.9567797%" filterUnits="userSpaceOnUse" width="246.771535%" height="228.261299%"><feGaussianBlur stdDeviation="11" in="SourceAlpha" result="i33"></feGaussianBlur><feOffset dx="0" dy="11" in="i33" result="i34"></feOffset><feColorMatrix values="0 0 0 1.0 0 0 0 0 1.0 0 0 0 0 1.0 0 0 0 0 1.0 0" type="matrix" in="i34"></feColorMatrix></filter><clipPath id="i35"><path d="M0,0 C20.6393931,5.68814188 30.9548623,12.5571993 30.9464075,20.6071724 C30.9337149,32.682132 18.3271851,44.5884545 15.4573784,41.1663892 C12.5875717,37.7443238 7.58819144,32.7426122 7.60087884,20.6676526 C7.60933711,12.6176795 5.07571083,5.72846198 0,0 Z"></path></clipPath><linearGradient id="i36" x1="15.4732037px" y1="101.337988px" x2="65.0213935px" y2="41.7624244px" gradientUnits="userSpaceOnUse"><stop stop-color="#FFFFFF" offset="0%"></stop><stop stop-color="#BDF5F9" offset="100%"></stop></linearGradient><filter id="i37" x="-102.756083%" y="-76.9507736%" filterUnits="userSpaceOnUse" width="246.794404%" height="228.251289%"><feGaussianBlur stdDeviation="11" in="SourceAlpha" result="i38"></feGaussianBlur><feOffset dx="0" dy="11" in="i38" result="i39"></feOffset><feColorMatrix values="0 0 0 1.0 0 0 0 0 1.0 0 0 0 0 1.0 0 0 0 0 1.0 0" type="matrix" in="i39"></feColorMatrix></filter><clipPath id="i40"><path d="M0,0 C20.6332424,5.68533775 30.9448188,12.5539681 30.9347293,20.6058912 C30.9195801,32.6837757 18.3136771,44.5955334 15.4452611,41.1732212 C12.576845,37.750909 7.57969218,32.7489995 7.59483391,20.6711149 C7.6049284,12.6191919 5.0733171,5.72882023 0,0 Z"></path></clipPath><linearGradient id="i41" x1="15.4673646px" y1="101.354231px" x2="64.9968565px" y2="41.7691183px" gradientUnits="userSpaceOnUse"><stop stop-color="#FFFFFF" offset="0%"></stop><stop stop-color="#BDF5F9" offset="100%"></stop></linearGradient><filter id="i42" x="-110.508736%" y="-100.708053%" filterUnits="userSpaceOnUse" width="257.869623%" height="267.846756%"><feGaussianBlur stdDeviation="11" in="SourceAlpha" result="i43"></feGaussianBlur><feOffset dx="0" dy="11" in="i43" result="i44"></feOffset><feColorMatrix values="0 0 0 1.0 0 0 0 0 1.0 0 0 0 0 1.0 0 0 0 0 1.0 0" type="matrix" in="i44"></feColorMatrix></filter><clipPath id="i45"><path d="M25.6777491,0 C23.3490822,12.0989168 18.3230006,17.5731766 15.9013739,20.0095122 L15.2737915,20.6372612 C14.9888471,20.9244117 14.7767247,21.1487931 14.6563309,21.3231957 C13.6712904,22.750126 4.11708895,16.7294885 1.73258814,11.3461752 C0.0740221865,7.60175197 -3.23107978,-1.36229965 8.42333945,1.83882747 C20.0777587,5.03995459 6.73803018,1.36056618 25.6777491,0 Z"></path></clipPath><linearGradient id="i46" x1="12.8388746px" y1="52.2577875px" x2="53.9514331px" y2="21.5359704px" gradientUnits="userSpaceOnUse"><stop stop-color="#FFFFFF" offset="0%"></stop><stop stop-color="#BDF5F9" offset="100%"></stop></linearGradient><filter id="i47" x="-107.697548%" y="-68.6305105%" filterUnits="userSpaceOnUse" width="253.85362%" height="214.384184%"><feGaussianBlur stdDeviation="11" in="SourceAlpha" result="i48"></feGaussianBlur><feOffset dx="0" dy="11" in="i48" result="i49"></feOffset><feColorMatrix values="0 0 0 1.0 0 0 0 0 1.0 0 0 0 0 1.0 0 0 0 0 1.0 0" type="matrix" in="i49"></feColorMatrix></filter><clipPath id="i50"><path d="M13.2380822,0 C22.7489946,8.45206448 27.5018058,17.3603835 27.4965157,26.7249572 C27.4885719,40.7718176 21.8740985,52.1622265 13.2085967,52.1671397 C4.54309492,52.1720497 -0.00792907404,40.7874026 0,26.7405421 C0.00529987631,17.3759685 4.41799393,8.46245444 13.2380822,0 Z"></path></clipPath><linearGradient id="i51" x1="13.7482579px" y1="126.585394px" x2="57.7728375px" y2="52.1671397px" gradientUnits="userSpaceOnUse"><stop stop-color="#FFFFFF" offset="0%"></stop><stop stop-color="#BDF5F9" offset="100%"></stop></linearGradient><filter id="i52" x="-107.700266%" y="-68.6280902%" filterUnits="userSpaceOnUse" width="253.857519%" height="214.38015%"><feGaussianBlur stdDeviation="11" in="SourceAlpha" result="i53"></feGaussianBlur><feOffset dx="0" dy="11" in="i53" result="i54"></feOffset><feColorMatrix values="0 0 0 1.0 0 0 0 0 1.0 0 0 0 0 1.0 0 0 0 0 1.0 0" type="matrix" in="i54"></feColorMatrix></filter><clipPath id="i55"><path d="M13.2123435,0 C22.7305025,8.4614912 27.4912923,17.3748282 27.4947128,26.740011 C27.4998366,40.7877851 21.8963218,52.1737034 13.2313852,52.1705321 C4.56644871,52.1673596 0.00512930161,40.7777203 0,26.7299462 C-0.00341688345,17.3647634 4.4006976,8.45478134 13.2123435,0 Z"></path></clipPath><linearGradient id="i56" x1="13.7473564px" y1="126.593626px" x2="57.7690495px" y2="52.1705321px" gradientUnits="userSpaceOnUse"><stop stop-color="#FFFFFF" offset="0%"></stop><stop stop-color="#BDF5F9" offset="100%"></stop></linearGradient><filter id="i57" x="-99.188082%" y="-65.8043644%" filterUnits="userSpaceOnUse" width="241.697219%" height="209.673941%"><feGaussianBlur stdDeviation="11" in="SourceAlpha" result="i58"></feGaussianBlur><feOffset dx="0" dy="11" in="i58" result="i59"></feOffset><feColorMatrix values="0 0 0 1.0 0 0 0 0 1.0 0 0 0 0 1.0 0 0 0 0 1.0 0" type="matrix" in="i59"></feColorMatrix></filter><clipPath id="i60"><path d="M16.1365467,0 C27.7863447,9.14163646 33.6175809,18.7654442 33.6302553,28.8714231 C33.6491883,44.0303915 26.8055365,56.3105644 16.207006,56.2972881 C5.60847553,56.2839902 0.0189945758,43.9882302 0,28.8292618 C-0.0126333784,18.7232829 5.36621554,9.11352893 16.1365467,0 Z"></path></clipPath><linearGradient id="i61" x1="16.8151277px" y1="136.607344px" x2="70.6604174px" y2="56.2972881px" gradientUnits="userSpaceOnUse"><stop stop-color="#FFFFFF" offset="0%"></stop><stop stop-color="#BDF5F9" offset="100%"></stop></linearGradient><filter id="i62" x="-99.1802748%" y="-65.8110997%" filterUnits="userSpaceOnUse" width="241.686003%" height="209.685166%"><feGaussianBlur stdDeviation="11" in="SourceAlpha" result="i63"></feGaussianBlur><feOffset dx="0" dy="11" in="i63" result="i64"></feOffset><feColorMatrix values="0 0 0 1.0 0 0 0 0 1.0 0 0 0 0 1.0 0 0 0 0 1.0 0" type="matrix" in="i64"></feColorMatrix></filter><clipPath id="i65"><path d="M16.214788,0 C19.3613142,6.30866489 21.9023289,11.0436887 23.8378321,14.2050713 C26.8125092,19.0638039 33.6433346,23.7070922 33.6364004,28.8205473 C33.6158264,43.9767507 26.7388671,56.2726037 16.1384002,56.2870214 C5.53793326,56.3014139 -0.0205118037,44.0224595 0,28.8662561 C0.0137503728,18.7621205 5.41867971,9.1400351 16.214788,0 Z"></path></clipPath><linearGradient id="i66" x1="16.8182002px" y1="136.582432px" x2="70.6733287px" y2="56.2870214px" gradientUnits="userSpaceOnUse"><stop stop-color="#FFFFFF" offset="0%"></stop><stop stop-color="#BDF5F9" offset="100%"></stop></linearGradient><filter id="i67" x="-99.2168617%" y="-65.4746025%" filterUnits="userSpaceOnUse" width="241.738374%" height="209.124338%"><feGaussianBlur stdDeviation="11" in="SourceAlpha" result="i68"></feGaussianBlur><feOffset dx="0" dy="11" in="i68" result="i69"></feOffset><feColorMatrix values="0 0 0 1.0 0 0 0 0 1.0 0 0 0 0 1.0 0 0 0 0 1.0 0" type="matrix" in="i69"></feColorMatrix></filter><clipPath id="i70"><path d="M16.1618508,0 C27.7924677,9.44492182 33.6077762,19.2237348 33.6077762,29.3364389 C33.6077762,44.505495 26.7533164,56.8024447 16.1618508,56.8024447 C5.5703852,56.8024447 0,44.505495 0,29.3364389 C0,19.2237348 5.38728361,9.44492182 16.1618508,0 Z"></path></clipPath><linearGradient id="i71" x1="16.8038881px" y1="137.833124px" x2="70.6131865px" y2="56.8024447px" gradientUnits="userSpaceOnUse"><stop stop-color="#FFFFFF" offset="0%"></stop><stop stop-color="#BDF5F9" offset="100%"></stop></linearGradient><clipPath id="i72"><path d="M74.925,0 C116.304935,0 149.85,4.58398798 149.85,10.2386237 C149.85,12.1952601 140.759059,12.5984262 131.098786,13.3968517 L130.292628,13.4643438 C130.023591,13.4871741 129.754297,13.510351 129.48493,13.5339165 L128.676788,13.6058203 C128.542121,13.6180125 128.407482,13.6303122 128.272893,13.6427247 L127.46614,13.7185951 C125.183074,13.9376329 122.927652,14.1922855 120.812042,14.5082039 C118.499225,14.8535709 116.283376,15.2524618 114.092329,15.6769594 L113.082576,15.8745979 C112.578317,15.9742246 112.074787,16.0749863 111.5711,16.1765398 L110.563254,16.3806009 L109.553412,16.5861637 C109.384851,16.6205154 109.216142,16.6549043 109.04725,16.6893176 L108.031458,16.8959893 C99.2044724,18.6879243 89.7085091,20.4772474 74.925,20.4772474 C59.8865174,20.4772474 50.4224206,18.6151515 41.5175154,16.789541 L40.5115323,16.583126 C36.8297104,15.8275907 33.2116302,15.0906864 29.2985944,14.5082039 C27.1962012,14.1952481 24.9519206,13.9425768 22.6764745,13.7251999 L21.872262,13.6499034 L20.663457,13.5419204 C10.3173708,12.6415765 0,12.3145293 0,10.2386237 C0,8.70794213 15.8778137,5.72698644 20.2839237,4.42289842 C32.1548415,0.909431431 44.7464063,0 74.925,0 Z"></path></clipPath><clipPath id="i73"><path d="M53.9757042,0 C83.7856625,0 107.951408,5.80906883 107.951408,12.9749184 C107.951408,15.4100056 101.635103,15.9464263 94.8170579,16.923226 L94.0977669,17.0277746 C91.6956278,17.3823652 89.2568349,17.8012773 87.0325668,18.3855533 C84.7195886,18.9931319 82.5412328,19.7314265 80.358416,20.5057888 L79.047078,20.9739771 C72.3305736,23.3813206 65.3105167,25.9498368 53.9757042,25.9498368 C42.9088809,25.9498368 36.0325336,23.4874295 29.4954145,21.1273023 L28.6254708,20.8134499 C28.4807025,20.7613173 28.3360172,20.7092914 28.1913726,20.6574005 L27.3236559,20.3478995 C25.2985461,19.6305595 23.2648522,18.9507011 21.1066035,18.3855533 C19.3425905,17.923638 17.4399186,17.5653564 15.5246118,17.260673 L14.8060256,17.1488314 C14.5664636,17.1123232 14.3269502,17.0765547 14.0877318,17.0414283 L13.3712071,16.9378773 L12.6579285,16.8375921 C6.02040386,15.9150128 0,15.3425447 0,12.9749184 C0,11.9573396 3.14776684,10.4339903 6.59895948,8.97696951 L7.24891946,8.70469506 C10.1834905,7.48421488 13.2075168,6.33641015 14.6124667,5.60492773 C23.1642338,1.15247898 32.2351524,0 53.9757042,0 Z"></path></clipPath><clipPath id="i74"><path d="M53.9757042,0 C83.7856625,0 107.951408,3.97144755 107.951408,8.87047638 C107.951408,10.5270185 101.697458,10.8983263 94.9182328,11.5598982 L94.1901383,11.6319634 C91.7581962,11.8763615 89.2853511,12.16496 87.0325668,12.5695293 C77.1638598,14.341814 69.745878,17.7409528 53.9757042,17.7409528 C41.7902987,17.7409528 34.6852871,15.6999847 27.5196114,13.9586516 L26.623214,13.7427148 C24.8282999,13.3146398 23.0162061,12.9113873 21.1066035,12.5695293 C19.0969684,12.2097633 16.9073722,11.9419521 14.7241522,11.715517 L13.996904,11.6415017 C6.85297876,10.9273893 0,10.5974366 0,8.87047638 C0,7.5443338 11.4383207,4.96171159 14.6124667,3.83188376 C15.2631446,3.60027688 15.916828,3.38173089 16.578869,3.17559909 L17.1485043,3.00193981 C25.0602264,0.641292043 34.3619455,0 53.9757042,0 Z"></path></clipPath><clipPath id="i75"><path d="M62.3007042,0 C96.7084331,0 124.601408,4.58398798 124.601408,10.2386237 C124.601408,12.266287 116.483456,12.6256494 108.133338,13.4854571 L107.385156,13.5638503 C107.010964,13.6037735 106.636778,13.6448298 106.263307,13.687214 L105.517528,13.7738104 C103.780576,13.9802689 102.069461,14.2184713 100.456127,14.5082039 C89.0653096,16.5538389 80.5032075,20.4772474 62.3007042,20.4772474 C49.5566347,20.4772474 41.6269305,18.5431522 34.0972323,16.6847157 L33.1378271,16.4480344 C32.4992187,16.2907273 31.862147,16.1345876 31.2238909,15.9808543 L30.2652782,15.752214 C28.3449155,15.2991622 26.4016475,14.8733422 24.3620029,14.5082039 C22.3953275,14.1561287 20.2793332,13.8803509 18.1451061,13.6452891 L17.3913059,13.5639589 L16.6372722,13.4856622 C16.5116516,13.4728463 16.3860747,13.4601423 16.260568,13.4475429 L15.5085856,13.3731449 C7.50099347,12.5917286 0,12.1797302 0,10.2386237 C0,9.34376371 4.51229399,7.95323606 8.99300468,6.69186561 L9.69956038,6.49386628 C12.6369283,5.6741004 15.4571153,4.92447074 16.866236,4.42289842 C26.736994,0.909431431 37.2069753,0 62.3007042,0 Z"></path></clipPath><filter id="i76" x="-9.44845192%" y="-36.9863262%" filterUnits="userSpaceOnUse" width="114.172678%" height="173.972652%"><feGaussianBlur stdDeviation="3" in="SourceAlpha" result="i77"></feGaussianBlur><feOffset dx="0" dy="6" in="i77" result="i78"></feOffset><feColorMatrix values="0 0 0 0.940015831772162 0 0 0 0 0.9725469091146104 0 0 0 0 0.9762436224489796 0 0 0 0 1.0 0" type="matrix" in="i78"></feColorMatrix></filter><clipPath id="i79"><path d="M121.004933,0 C187.834112,0 242.009865,8.20810562 242.009865,18.333317 C242.009865,23.1020518 214.80965,22.7174372 195.113154,25.978443 C191.573303,26.5645104 188.174102,27.2366539 184.816352,27.9523259 L183.558945,28.2226602 L182.304261,28.4965767 C180.632649,28.8639652 178.9652,29.2395765 177.289514,29.6180923 L176.031011,29.9024406 C161.325939,33.2242519 145.752885,36.666634 121.004933,36.666634 C95.9522901,36.666634 80.478638,33.1189257 65.6943467,29.7547066 L64.4464123,29.4709266 L63.2005677,29.1885206 C58.0122465,28.0153862 52.8473007,26.8910639 47.3176436,25.978443 C43.5607392,25.3583992 39.5232916,24.8705107 35.4475313,24.4541617 L34.1594581,24.3249905 C33.3002703,24.2403674 32.4405146,24.1586322 31.582451,24.0792194 L30.2969075,23.9617713 C14.6784441,22.5522897 0,21.8221035 0,18.333317 C0,15.592473 25.6428933,10.2547628 32.7588231,7.91965806 C51.930523,1.62843124 72.2660779,0 121.004933,0 Z"></path></clipPath><filter id="i80" x="-66.2052097%" y="-34.5809684%" filterUnits="userSpaceOnUse" width="199.307815%" height="169.161937%"><feGaussianBlur stdDeviation="3" in="SourceAlpha" result="i81"></feGaussianBlur><feOffset dx="0" dy="6" in="i81" result="i82"></feOffset><feColorMatrix values="0 0 0 1.0 0 0 0 0 1.0 0 0 0 0 1.0 0 0 0 0 1.0 0" type="matrix" in="i82"></feColorMatrix></filter><clipPath id="i83"><path d="M4.69342237,0 C14.158435,4.07509741 20.0625433,9.67457991 22.4057472,16.7984475 C25.920553,27.4842489 24.4388864,37.5368959 17.7466852,39.684859 C11.0544841,41.8328221 4.6855317,34.29995 1.17072586,23.6141486 C-1.17247803,16.490281 0.00175413601,8.61889815 4.69342237,0 Z"></path></clipPath><linearGradient id="i84" x1="8.66629172px" y1="2.44303239px" x2="15.6570682px" y2="37.9769112px" gradientUnits="userSpaceOnUse"><stop stop-color="#FFFFFF" offset="0%"></stop><stop stop-color="#D3BDFF" offset="100%"></stop></linearGradient><filter id="i85" x="-66.9759024%" y="-34.2411614%" filterUnits="userSpaceOnUse" width="200.463854%" height="168.482323%"><feGaussianBlur stdDeviation="3" in="SourceAlpha" result="i86"></feGaussianBlur><feOffset dx="0" dy="6" in="i86" result="i87"></feOffset><feColorMatrix values="0 0 0 1.0 0 0 0 0 1.0 0 0 0 0 1.0 0 0 0 0 1.0 0" type="matrix" in="i87"></feColorMatrix></filter><clipPath id="i88"><path d="M17.48594,0 C23.1771647,8.50993822 25.0414948,16.3825302 23.0789302,23.6177761 C20.1350834,34.4706448 13.3499315,42.1043521 6.55310102,40.3053126 C-0.243729471,38.5062732 -1.43193724,28.7621133 1.51190956,17.9092445 C3.4744741,10.6739987 8.7991509,4.70425054 17.48594,0 Z"></path></clipPath><linearGradient id="i89" x1="14.764305px" y1="2.1960961px" x2="9.00985275px" y2="38.7509851px" gradientUnits="userSpaceOnUse"><stop stop-color="#FFFFFF" offset="0%"></stop><stop stop-color="#D3BDFF" offset="100%"></stop></linearGradient><filter id="i90" x="-51.2102783%" y="-44.788777%" filterUnits="userSpaceOnUse" width="176.815418%" height="189.577554%"><feGaussianBlur stdDeviation="3" in="SourceAlpha" result="i91"></feGaussianBlur><feOffset dx="0" dy="6" in="i91" result="i92"></feOffset><feColorMatrix values="0 0 0 1.0 0 0 0 0 1.0 0 0 0 0 1.0 0 0 0 0 1.0 0" type="matrix" in="i92"></feColorMatrix></filter><clipPath id="i93"><path d="M8.59369149,4.27134679 C13.7366025,-0.989475377 22.4939026,-1.3906623 34.8655918,3.06778602 C33.2014303,8.82362777 29.7978941,14.3319597 24.6549831,19.5927819 C16.9406166,27.4840151 7.411113,30.7562468 2.34940893,25.927708 C-2.71229514,21.0991691 0.879325002,12.16258 8.59369149,4.27134679 Z"></path></clipPath><linearGradient id="i94" x1="28.6124813px" y1="4.73445706px" x2="6.01900366px" y2="23.6501812px" gradientUnits="userSpaceOnUse"><stop stop-color="#FFFFFF" offset="0%"></stop><stop stop-color="#D3BDFF" offset="100%"></stop></linearGradient><filter id="i95" x="-50.6605377%" y="-45.4913449%" filterUnits="userSpaceOnUse" width="175.990807%" height="190.98269%"><feGaussianBlur stdDeviation="3" in="SourceAlpha" result="i96"></feGaussianBlur><feOffset dx="0" dy="6" in="i96" result="i97"></feOffset><feColorMatrix values="0 0 0 1.0 0 0 0 0 1.0 0 0 0 0 1.0 0 0 0 0 1.0 0" type="matrix" in="i97"></feColorMatrix></filter><clipPath id="i98"><path d="M0,7.26809873 C13.2978304,-0.792506967 22.4713369,-2.14846748 27.5205193,3.20021719 C35.094293,11.2232442 37.9035662,20.7951192 32.7573251,25.5356589 C27.6110841,30.2761986 18.7647572,26.2654492 11.1909835,18.2424222 C6.14180103,12.8937375 2.4114732,9.2356297 0,7.26809873 Z"></path></clipPath><linearGradient id="i99" x1="6.55103966px" y1="4.47733139px" x2="29.0563049px" y2="23.2855196px" gradientUnits="userSpaceOnUse"><stop stop-color="#FFFFFF" offset="0%"></stop><stop stop-color="#D3BDFF" offset="100%"></stop></linearGradient><filter id="i100" x="-47.4098227%" y="-46.1001475%" filterUnits="userSpaceOnUse" width="171.114734%" height="192.200295%"><feGaussianBlur stdDeviation="3" in="SourceAlpha" result="i101"></feGaussianBlur><feOffset dx="0" dy="6" in="i101" result="i102"></feOffset><feColorMatrix values="0 0 0 1.0 0 0 0 0 1.0 0 0 0 0 1.0 0 0 0 0 1.0 0" type="matrix" in="i102"></feColorMatrix></filter><clipPath id="i103"><path d="M0,10.6707118 C15.4633432,-0.00666127514 25.719606,-2.67100546 30.7687884,2.67767921 C38.3425621,10.7007062 41.1518353,20.2725812 36.0055942,25.0131209 C30.8593532,29.7536606 22.0130263,25.7429112 14.4392526,17.7198842 C9.39007015,12.3711995 4.57698594,10.0214754 0,10.6707118 Z"></path></clipPath><linearGradient id="i104" x1="7.15259584px" y1="4.39246566px" x2="31.724431px" y2="22.8441534px" gradientUnits="userSpaceOnUse"><stop stop-color="#FFFFFF" offset="0%"></stop><stop stop-color="#D3BDFF" offset="100%"></stop></linearGradient><filter id="i105" x="-46.6273772%" y="-47.2635117%" filterUnits="userSpaceOnUse" width="169.941066%" height="194.527023%"><feGaussianBlur stdDeviation="3" in="SourceAlpha" result="i106"></feGaussianBlur><feOffset dx="0" dy="6" in="i106" result="i107"></feOffset><feColorMatrix values="0 0 0 1.0 0 0 0 0 1.0 0 0 0 0 1.0 0 0 0 0 1.0 0" type="matrix" in="i107"></feColorMatrix></filter><clipPath id="i108"><path d="M39.4719065,13.9817767 C35.030933,12.7096182 29.9336418,14.3747758 24.180033,18.9772497 C15.5496199,25.8809606 6.22431903,28.6364914 1.79604523,23.2345851 C-2.63222856,17.8326787 1.4982657,8.74017325 10.1286789,1.83646239 C15.8822877,-2.76601152 25.6633636,1.2824266 39.4719065,13.9817767 Z"></path></clipPath><linearGradient id="i109" x1="33.8955853px" y1="20.6194487px" x2="5.27981322px" y2="5.30622773px" gradientUnits="userSpaceOnUse"><stop stop-color="#FFFFFF" offset="0%"></stop><stop stop-color="#D3BDFF" offset="100%"></stop></linearGradient><filter id="i110" x="-35.8623972%" y="-43.1882132%" filterUnits="userSpaceOnUse" width="153.793596%" height="186.376426%"><feGaussianBlur stdDeviation="3" in="SourceAlpha" result="i111"></feGaussianBlur><feOffset dx="0" dy="6" in="i111" result="i112"></feOffset><feColorMatrix values="0 0 0 1.0 0 0 0 0 1.0 0 0 0 0 1.0 0 0 0 0 1.0 0" type="matrix" in="i112"></feColorMatrix></filter><clipPath id="i113"><path d="M0,25.8668032 C15.7716373,5.55648836 28.1810612,-2.79325816 37.2282718,0.817563609 C50.7990876,6.23379626 58.4591247,25.520426 53.3077927,27.1673299 C48.1564607,28.8142338 40.2616111,32.1126159 26.6907953,26.6963833 C17.6435847,23.0855615 8.74665294,22.8090348 0,25.8668032 Z"></path></clipPath><linearGradient id="i114" x1="3.95531801px" y1="9.70719365px" x2="51.459369px" y2="20.0783069px" gradientUnits="userSpaceOnUse"><stop stop-color="#FFFFFF" offset="0%"></stop><stop stop-color="#D3BDFF" offset="100%"></stop></linearGradient><filter id="i115" x="-35.8917057%" y="-42.2988379%" filterUnits="userSpaceOnUse" width="153.837559%" height="184.597676%"><feGaussianBlur stdDeviation="3" in="SourceAlpha" result="i116"></feGaussianBlur><feOffset dx="0" dy="6" in="i116" result="i117"></feOffset><feColorMatrix values="0 0 0 1.0 0 0 0 0 1.0 0 0 0 0 1.0 0 0 0 0 1.0 0" type="matrix" in="i117"></feColorMatrix></filter><clipPath id="i118"><path d="M54.8678167,22.3979265 C45.8455169,20.2600555 37.0265846,21.4537312 28.4110195,25.9789536 C15.487672,32.7667871 7.28704841,30.3016664 1.98966664,29.1956917 C-3.30771513,28.089717 2.26951868,8.11779469 15.1928662,1.32996113 C23.8084313,-3.19526125 37.0334148,3.82739387 54.8678167,22.3979265 Z"></path></clipPath><linearGradient id="i119" x1="49.7960748px" y1="21.8984878px" x2="4.60346976px" y2="8.51722008px" gradientUnits="userSpaceOnUse"><stop stop-color="#FFFFFF" offset="0%"></stop><stop stop-color="#D3BDFF" offset="100%"></stop></linearGradient><filter id="i120" x="-55.6337865%" y="-47.7199137%" filterUnits="userSpaceOnUse" width="183.45068%" height="195.439827%"><feGaussianBlur stdDeviation="3" in="SourceAlpha" result="i121"></feGaussianBlur><feOffset dx="0" dy="6" in="i121" result="i122"></feOffset><feColorMatrix values="0 0 0 1.0 0 0 0 0 1.0 0 0 0 0 1.0 0 0 0 0 1.0 0" type="matrix" in="i122"></feColorMatrix></filter><clipPath id="i123"><path d="M31.1392531,0 C28.0328966,15.8945198 20.9684623,22.2158425 18.5036753,24.6654178 L18.3428497,24.8265017 C18.0870211,25.0851985 17.8931003,25.2955718 17.773645,25.465988 C16.5790923,27.1701505 4.9927692,19.9797891 2.10109929,13.5505749 C0.0897662639,9.07866378 -3.91831117,-1.62697501 10.2149335,2.19608538 C10.9215957,2.3872384 11.5524823,2.55784817 12.1162752,2.70928801 L12.7611773,2.88190215 C22.2752078,5.41752177 9.77893488,1.51116142 31.1392531,0 Z"></path></clipPath><linearGradient id="i124" x1="15.5696266px" y1="0.987775751px" x2="15.5696266px" y2="24.9809359px" gradientUnits="userSpaceOnUse"><stop stop-color="#FFFFFF" offset="0%"></stop><stop stop-color="#D3BDFF" offset="100%"></stop></linearGradient><filter id="i125" x="-51.6405816%" y="-24.5318902%" filterUnits="userSpaceOnUse" width="177.460872%" height="149.06378%"><feGaussianBlur stdDeviation="3" in="SourceAlpha" result="i126"></feGaussianBlur><feOffset dx="0" dy="6" in="i126" result="i127"></feOffset><feColorMatrix values="0 0 0 1.0 0 0 0 0 1.0 0 0 0 0 1.0 0 0 0 0 1.0 0" type="matrix" in="i127"></feColorMatrix></filter><clipPath id="i128"><path d="M10.2256401,0 C23.5032501,7.74130807 31.2223218,17.1018129 33.3828553,28.0815144 C36.6236556,44.5510667 32.575696,59.1840019 22.2613028,61.1645152 C11.9469097,63.1450284 3.89505788,50.8354326 0.654257613,34.3658803 C-1.5062759,23.3861788 1.68418493,11.9308853 10.2256401,0 Z"></path></clipPath><linearGradient id="i129" x1="14.2010939px" y1="2.87755239px" x2="20.3375673px" y2="59.0786678px" gradientUnits="userSpaceOnUse"><stop stop-color="#FFFFFF" offset="0%"></stop><stop stop-color="#D3BDFF" offset="100%"></stop></linearGradient><filter id="i130" x="-52.3081521%" y="-24.3467386%" filterUnits="userSpaceOnUse" width="178.462228%" height="148.693477%"><feGaussianBlur stdDeviation="3" in="SourceAlpha" result="i131"></feGaussianBlur><feOffset dx="0" dy="6" in="i131" result="i132"></feOffset><feColorMatrix values="0 0 0 1.0 0 0 0 0 1.0 0 0 0 0 1.0 0 0 0 0 1.0 0" type="matrix" in="i132"></feColorMatrix></filter><clipPath id="i133"><path d="M20.3961807,0 C30.6022684,11.4154911 35.0153479,22.6741529 33.6354193,33.7759853 C31.5655263,50.428734 23.1381493,63.1098186 12.7090257,61.8448686 C2.27990207,60.5799185 -1.52712257,46.4149214 0.542770414,29.7621728 C1.92269907,18.6603403 8.54050248,8.73961609 20.3961807,0 Z"></path></clipPath><linearGradient id="i134" x1="18.8469802px" y1="2.5915687px" x2="14.9950569px" y2="59.9344748px" gradientUnits="userSpaceOnUse"><stop stop-color="#FFFFFF" offset="0%"></stop><stop stop-color="#D3BDFF" offset="100%"></stop></linearGradient><filter id="i135" x="-41.088853%" y="-24.5769373%" filterUnits="userSpaceOnUse" width="161.63328%" height="149.153875%"><feGaussianBlur stdDeviation="3" in="SourceAlpha" result="i136"></feGaussianBlur><feOffset dx="0" dy="6" in="i136" result="i137"></feOffset><feColorMatrix values="0 0 0 1.0 0 0 0 0 1.0 0 0 0 0 1.0 0 0 0 0 1.0 0" type="matrix" in="i137"></feColorMatrix></filter><clipPath id="i138"><path d="M40.3167683,0 C47.5863172,16.1718126 48.3511502,29.5896002 42.6112673,40.2533627 C34.001443,56.2490065 19.6824209,65.3611161 8.34165913,59.4045168 C-2.99910266,53.4479175 -1.98392463,37.348123 6.62589972,21.3524793 C12.3657826,10.6887168 23.5960721,3.57122367 40.3167683,0 Z"></path></clipPath><linearGradient id="i139" x1="33.2623184px" y1="5.66070276px" x2="12.9370799px" y2="56.1013422px" gradientUnits="userSpaceOnUse"><stop stop-color="#FFFFFF" offset="0%"></stop><stop stop-color="#D3BDFF" offset="100%"></stop></linearGradient><filter id="i140" x="-40.3372384%" y="-25.2364955%" filterUnits="userSpaceOnUse" width="160.505858%" height="150.472991%"><feGaussianBlur stdDeviation="3" in="SourceAlpha" result="i141"></feGaussianBlur><feOffset dx="0" dy="6" in="i141" result="i142"></feOffset><feColorMatrix values="0 0 0 1.0 0 0 0 0 1.0 0 0 0 0 1.0 0 0 0 0 1.0 0" type="matrix" in="i142"></feColorMatrix></filter><clipPath id="i143"><path d="M3.50355725,0 C10.7935378,4.39807473 16.4495565,7.58557141 20.4716133,9.56249005 C22.6070419,10.6120944 25.1992165,11.3444085 27.812901,12.0670824 L28.6384824,12.2953336 C33.3150757,13.5910078 37.9138412,14.9595133 39.9407535,18.1637717 C49.6591521,33.5271696 50.4881876,50.3329339 39.5956822,57.0564865 C28.7031768,63.780039 15.0961466,54.8616722 5.37774797,39.4982742 C-1.10118443,29.2560089 -1.72591467,16.0899175 3.50355725,0 Z"></path></clipPath><linearGradient id="i144" x1="12.1306955px" y1="6.43946694px" x2="35.6109716px" y2="53.3721107px" gradientUnits="userSpaceOnUse"><stop stop-color="#FFFFFF" offset="0%"></stop><stop stop-color="#D3BDFF" offset="100%"></stop></linearGradient><filter id="i145" x="-45.4924993%" y="-22.5455566%" filterUnits="userSpaceOnUse" width="168.238749%" height="145.091113%"><feGaussianBlur stdDeviation="3" in="SourceAlpha" result="i146"></feGaussianBlur><feOffset dx="0" dy="6" in="i146" result="i147"></feOffset><feColorMatrix values="0 0 0 1.0 0 0 0 0 1.0 0 0 0 0 1.0 0 0 0 0 1.0 0" type="matrix" in="i147"></feColorMatrix></filter><clipPath id="i148"><path d="M19.59938,0 C33.7037598,11.2799352 40.7559496,22.9586318 40.7559496,35.0360899 C40.7559496,53.1522769 32.4435872,67.8383483 19.59938,67.8383483 C6.75517289,67.8383483 0,53.1522769 0,35.0360899 C0,22.9586318 6.53312668,11.2799352 19.59938,0 Z"></path></clipPath><linearGradient id="i149" x1="20.3779748px" y1="2.60531922px" x2="20.3779748px" y2="65.8887529px" gradientUnits="userSpaceOnUse"><stop stop-color="#FFFFFF" offset="0%"></stop><stop stop-color="#D3BDFF" offset="100%"></stop></linearGradient></defs><g transform="translate(0.0 20.0)"><g transform="translate(0.0 27.097270034360726)"><g clip-path="url(#i0)"><polygon points="0,0 777,0 777,116.90273 0,116.90273 0,0" stroke="none" fill="#B1F6F7"></polygon></g></g><g transform="translate(127.64999999999964 0.0)"><g transform="translate(0.0 45.85645466383319)"><g clip-path="url(#i1)"><polygon points="0,0 194.25,0 194.25,29.6550773 0,29.6550773 0,0" stroke="none" fill="#D3FBFF"></polygon></g></g><g transform="translate(45.54517878273964 0.0)"><g transform="translate(19.755223988189428 9.157264282595289) rotate(-18.0)"><path d="M8.84161179,34.9289203 C14.6457389,34.9237568 18.4087483,27.2960071 18.4170981,17.8908212 C18.422655,11.6206973 15.2411537,5.65709019 8.87259431,0 C2.96310453,5.66800768 0.00557309592,11.6370735 0,17.9071974 C-0.0083254603,27.3123834 3.03748472,34.9340787 8.84161179,34.9289203 Z" stroke="none" fill="#000000" filter="url(#i2)"></path><g clip-path="url(#i5)"><polygon points="-1.70219207e-05,-1.77635684e-15 18.4171054,-1.77635684e-15 18.4171054,34.928923 -1.70219207e-05,34.928923 -1.70219207e-05,-1.77635684e-15" stroke="none" fill="url(#i6)"></polygon></g></g><g transform="translate(71.59433572629308 2.330905310733055) rotate(14.999999999999998)"><path d="M8.86879163,34.9319246 C14.6724182,34.9363128 18.4225878,27.3140885 18.4155012,17.9080934 C18.4107634,11.63743 15.2197418,5.66806557 8.84243633,0 C2.9427515,5.6587786 -0.0047272749,11.6234996 0,17.894163 C0.00710228501,27.300158 3.06516511,34.9275325 8.86879163,34.9319246 Z" stroke="none" fill="#000000" filter="url(#i7)"></path><g clip-path="url(#i10)"><polygon points="-5.6772277e-06,0 18.4155112,0 18.4155112,34.9319265 -5.6772277e-06,34.9319265 -5.6772277e-06,0" stroke="none" fill="url(#i11)"></polygon></g></g><g transform="translate(82.6964255791416 8.819226739068132) rotate(43.99999999999999)"><path d="M8.89216112,32.3954833 C14.7030852,32.4042505 18.4525035,24.9744565 18.4386925,15.8023358 C18.4294342,9.68758867 17.2444746,4.42014341 14.8838138,0 C4.95204703,4.40158078 -0.00922424472,9.65974474 0,15.7744919 C0.0138620924,24.9466126 3.08123703,32.3867005 8.89216112,32.3954833 Z" stroke="none" fill="#000000" filter="url(#i12)"></path><g clip-path="url(#i15)"><polygon points="-1.28387637e-05,0 18.4387305,0 18.4387305,32.3954911 -1.28387637e-05,32.3954911 -1.28387637e-05,0" stroke="none" fill="url(#i16)"></polygon></g></g><g transform="translate(12.628145379898559 25.221432602681404) rotate(-42.99999999999998)"><path d="M9.32393056,29.6093368 C15.1345486,29.6005701 18.9062023,22.159037 18.9200363,12.9864333 C18.9292455,6.87136416 12.6225668,2.54255306 0,0 C0.330786599,2.56108175 0.491571928,6.8991572 0.482355984,13.0142264 C0.468532069,22.1868301 3.51331252,29.618088 9.32393056,29.6093368 Z" stroke="none" fill="#000000" filter="url(#i17)"></path><g clip-path="url(#i20)"><polygon points="1.13686838e-13,0 18.9200464,0 18.9200464,29.6093445 1.13686838e-13,29.6093445 1.13686838e-13,0" stroke="none" fill="url(#i21)"></polygon></g></g><g transform="translate(-2.984279490192421e-13 38.74910944954819) rotate(-42.99999999999998)"><path d="M13.5243009,29.032486 C19.3349189,29.0237193 23.1065726,21.5821862 23.1204048,12.4095825 C23.1296152,6.29451336 15.4228136,2.15798586 0,0 C3.13103348,2.17651455 4.69194225,6.3223064 4.6827263,12.4373756 C4.66890239,21.6099793 7.71368284,29.0412372 13.5243009,29.032486 Z" stroke="none" fill="#000000" filter="url(#i22)"></path><g clip-path="url(#i25)"><polygon points="-1.13686838e-13,-5.68434189e-14 23.120413,-5.68434189e-14 23.120413,29.0324937 -1.13686838e-13,29.0324937 -1.13686838e-13,-5.68434189e-14" stroke="none" fill="url(#i26)"></polygon></g></g><g transform="translate(109.19519019293648 35.89826160842142) rotate(51.0) scale(-1.0 1.0)"><path d="M13.530846,29.0206963 C19.3439021,29.0121004 23.1169155,21.573797 23.1304783,12.4050411 C23.1395095,6.29253713 15.4293501,2.15752345 0,0 C3.13241256,2.1756915 4.69410056,6.31978921 4.685064,12.4322931 C4.67150915,21.601049 7.71778996,29.0292773 13.530846,29.0206963 Z" stroke="none" fill="#000000" filter="url(#i27)"></path><g clip-path="url(#i30)"><polygon points="0,0 23.1304862,0 23.1304862,29.0207037 0,29.0207037 0,0" stroke="none" fill="url(#i31)"></polygon></g></g><g transform="translate(0.6681098798531728 57.24170986996077) rotate(-68.0)"><path d="M15.4573784,41.1663892 C18.3271851,44.5884545 30.9337149,32.682132 30.9464075,20.6071724 C30.9548623,12.5571993 20.6393931,5.68814188 0,0 C5.07571083,5.72846198 7.60933711,12.6176795 7.60087884,20.6676526 C7.58819144,32.7426122 12.5875717,37.7443238 15.4573784,41.1663892 Z" stroke="none" fill="#000000" filter="url(#i32)"></path><g clip-path="url(#i35)"><polygon points="0,1.13686838e-13 30.9464126,1.13686838e-13 30.9464126,41.7624244 0,41.7624244 0,1.13686838e-13" stroke="none" fill="url(#i36)"></polygon></g></g><g transform="translate(107.71821349142277 53.041629964193305) rotate(62.0) scale(-1.0 1.0)"><path d="M15.4452611,41.1732212 C18.3136771,44.5955334 30.9195801,32.6837757 30.9347293,20.6058912 C30.9448188,12.5539681 20.6332424,5.68533775 0,0 C5.0733171,5.72882023 7.6049284,12.6191919 7.59483391,20.6711149 C7.57969218,32.7489995 12.576845,37.750909 15.4452611,41.1732212 Z" stroke="none" fill="#000000" filter="url(#i37)"></path><g clip-path="url(#i40)"><polygon points="-2.84217094e-14,0 30.9347367,0 30.9347367,41.7691183 -2.84217094e-14,41.7691183 -2.84217094e-14,0" stroke="none" fill="url(#i41)"></polygon></g></g><g transform="translate(41.27012572407148 55.62458716531817)"><path d="M8.42333945,1.83882747 C20.0777587,5.03995459 6.73803018,1.36056618 25.6777491,0 C22.7669155,15.123646 15.6413714,19.8962655 14.6563309,21.3231957 C13.6712904,22.750126 4.11708895,16.7294885 1.73258814,11.3461752 C0.0740221865,7.60175197 -3.23107978,-1.36229965 8.42333945,1.83882747 Z" stroke="none" fill="#000000" filter="url(#i42)"></path><g clip-path="url(#i45)"><polygon points="7.86037901e-14,0 25.6777491,0 25.6777491,21.5359704 7.86037901e-14,21.5359704 7.86037901e-14,0" stroke="none" fill="url(#i46)"></polygon></g></g><g transform="translate(24.358546022407083 5.257406351946049) rotate(-10.999999999999998)"><path d="M13.2085967,52.1671397 C21.8740985,52.1622265 27.4885719,40.7718176 27.4965157,26.7249572 C27.5018058,17.3603835 22.7489946,8.45206448 13.2380822,0 C4.41799393,8.46245444 0.00529987631,17.3759685 0,26.7405421 C-0.00792907404,40.7874026 4.54309492,52.1720497 13.2085967,52.1671397 Z" stroke="none" fill="#000000" filter="url(#i47)"></path><g clip-path="url(#i50)"><polygon points="-1.03431629e-05,-2.84217094e-14 27.4965201,-2.84217094e-14 27.4965201,52.1671413 -1.03431629e-05,52.1671413 -1.03431629e-05,-2.84217094e-14" stroke="none" fill="url(#i51)"></polygon></g></g><g transform="translate(57.915273392062524 0.5070529459967617) rotate(7.0)"><path d="M13.2313852,52.1705321 C21.8963218,52.1737034 27.4998366,40.7877851 27.4947128,26.740011 C27.4912923,17.3748282 22.7305025,8.4614912 13.2123435,0 C4.4006976,8.45478134 -0.00341688345,17.3647634 0,26.7299462 C0.00512930161,40.7777203 4.56644871,52.1673596 13.2313852,52.1705321 Z" stroke="none" fill="#000000" filter="url(#i52)"></path><g clip-path="url(#i55)"><polygon points="-1.98667194e-06,0 27.4947164,0 27.4947164,52.1705328 -1.98667194e-06,52.1705328 -1.98667194e-06,0" stroke="none" fill="url(#i56)"></polygon></g></g><g transform="translate(67.2794309290125 0.9019052675184156) rotate(28.0)"><path d="M16.207006,56.2972881 C26.8055365,56.3105644 33.6491883,44.0303915 33.6302553,28.8714231 C33.6175809,18.7654442 27.7863447,9.14163646 16.1365467,0 C5.36621554,9.11352893 -0.0126333784,18.7232829 0,28.8292618 C0.0189945758,43.9882302 5.60847553,56.2839902 16.207006,56.2972881 Z" stroke="none" fill="#000000" filter="url(#i57)"></path><g clip-path="url(#i60)"><polygon points="-2.22019994e-05,0 33.6302945,0 33.6302945,56.2972988 -2.22019994e-05,56.2972988 -2.22019994e-05,0" stroke="none" fill="url(#i61)"></polygon></g></g><g transform="translate(11.242081075935737 19.46762691790199) rotate(-32.0)"><path d="M16.1384002,56.2870214 C26.7388671,56.2726037 33.6158264,43.9767507 33.6364004,28.8205473 C33.6433346,23.7070922 26.8125092,19.0638039 23.8378321,14.2050713 C21.9023289,11.0436887 19.3613142,6.30866489 16.214788,0 C5.41867971,9.1400351 0.0137503728,18.7621205 0,28.8662561 C-0.0205118037,44.0224595 5.53793326,56.3014139 16.1384002,56.2870214 Z" stroke="none" fill="#000000" filter="url(#i62)"></path><g clip-path="url(#i65)"><polygon points="-5.65641911e-05,5.68434189e-14 33.6364057,5.68434189e-14 33.6364057,56.2870341 -5.65641911e-05,56.2870341 -5.65641911e-05,5.68434189e-14" stroke="none" fill="url(#i66)"></polygon></g></g><g transform="translate(38.21529555261715 2.7331830149692458)"><path d="M16.1618508,56.8024447 C26.7533164,56.8024447 33.6077762,44.505495 33.6077762,29.3364389 C33.6077762,19.2237348 27.7924677,9.44492182 16.1618508,0 C5.38728361,9.44492182 0,19.2237348 0,29.3364389 C0,44.505495 5.5703852,56.8024447 16.1618508,56.8024447 Z" stroke="none" fill="#000000" filter="url(#i67)"></path><g clip-path="url(#i70)"><polygon points="0,0 33.6077762,0 33.6077762,56.8024447 0,56.8024447 0,0" stroke="none" fill="url(#i71)"></polygon></g></g></g></g><g transform="translate(291.1014084507033 65.97063936139622)"><g clip-path="url(#i72)"><polygon points="0,0 149.85,0 149.85,20.4772474 0,20.4772474 0,0" stroke="none" fill="#D1FCFC"></polygon></g></g><g transform="translate(333.0 142.1158534364511) scale(1.0 -1.0)"><g clip-path="url(#i73)"><polygon points="0,0 107.951408,0 107.951408,25.9498368 0,25.9498368 0,0" stroke="none" fill="#D1FCFC"></polygon></g></g><g transform="translate(127.64999999999964 88.33203334969554)"><g clip-path="url(#i74)"><polygon points="0,0 107.951408,0 107.951408,17.7409528 0,17.7409528 0,0" stroke="none" fill="#D1FCFC"></polygon></g></g><g transform="translate(444.0 49.36445669448254)"><g clip-path="url(#i75)"><polygon points="0,0 124.601408,0 124.601408,20.4772474 0,20.4772474 0,0" stroke="none" fill="#D1FCFC"></polygon></g></g><g transform="translate(461.1132976888576 28.724319677573902)"><g transform="translate(0.0 45.95050585391341)"><path d="M121.004933,36.666634 C156.359151,36.666634 172.989085,29.6413644 195.113154,25.978443 C214.80965,22.7174372 242.009865,23.1020518 242.009865,18.333317 C242.009865,8.20810562 187.834112,0 121.004933,0 C72.2660779,0 51.930523,1.62843124 32.7588231,7.91965806 C25.6428933,10.2547628 0,15.592473 0,18.333317 C0,23.1124765 27.5444625,22.7150547 47.3176436,25.978443 C69.4362717,29.6289265 85.7195206,36.666634 121.004933,36.666634 Z" stroke="none" fill="#000000" filter="url(#i76)"></path><g clip-path="url(#i79)"><polygon points="0,0 242.009865,0 242.009865,36.666634 0,36.666634 0,0" stroke="none" fill="#EADFFF"></polygon></g></g><g transform="translate(60.101547182491245 0.0)"><g transform="translate(29.49658635572724 5.133343639481897)"><path d="M17.7466852,39.684859 C24.4388864,37.5368959 25.920553,27.4842489 22.4057472,16.7984475 C20.0625433,9.67457991 14.158435,4.07509741 4.69342237,0 C0.00175413601,8.61889815 -1.17247803,16.490281 1.17072586,23.6141486 C4.6855317,34.29995 11.0544841,41.8328221 17.7466852,39.684859 Z" stroke="none" fill="#000000" filter="url(#i80)"></path><g clip-path="url(#i83)"><polygon points="-1.5720758e-13,0 24.2509236,0 24.2509236,40.0517523 -1.5720758e-13,40.0517523 -1.5720758e-13,0" stroke="none" fill="url(#i84)"></polygon></g></g><g transform="translate(79.69337083285609 2.9884168278498144)"><path d="M6.55310102,40.3053126 C13.3499315,42.1043521 20.1350834,34.4706448 23.0789302,23.6177761 C25.0414948,16.3825302 23.1771647,8.50993822 17.48594,0 C8.7991509,4.70425054 3.4744741,10.6739987 1.51190956,17.9092445 C-1.43193724,28.7621133 -0.243729471,38.5062732 6.55310102,40.3053126 Z" stroke="none" fill="#000000" filter="url(#i85)"></path><g clip-path="url(#i88)"><polygon points="2.75557355e-13,0 23.8337837,0 23.8337837,40.5683104 2.75557355e-13,40.5683104 2.75557355e-13,0" stroke="none" fill="url(#i89)"></polygon></g></g><g transform="translate(78.40286954528713 17.284365362595437)"><path d="M2.34940893,25.927708 C7.411113,30.7562468 16.9406166,27.4840151 24.6549831,19.5927819 C29.7978941,14.3319597 33.2014303,8.82362777 34.8655918,3.06778602 C22.4939026,-1.3906623 13.7366025,-0.989475377 8.59369149,4.27134679 C0.879325002,12.16258 -2.71229514,21.0991691 2.34940893,25.927708 Z" stroke="none" fill="#000000" filter="url(#i90)"></path><g clip-path="url(#i93)"><polygon points="-1.56319402e-13,-1.02140518e-14 34.8655918,-1.02140518e-14 34.8655918,28.1886392 -1.56319402e-13,28.1886392 -1.56319402e-13,-1.02140518e-14" stroke="none" fill="url(#i94)"></polygon></g></g><g transform="translate(15.31408328106864 20.32514052023179)"><path d="M32.7573251,25.5356589 C37.9035662,20.7951192 35.094293,11.2232442 27.5205193,3.20021719 C22.4713369,-2.14846748 13.2978304,-0.792506967 0,7.26809873 C2.4114732,9.2356297 6.14180103,12.8937375 11.1909835,18.2424222 C18.7647572,26.2654492 27.6110841,30.2761986 32.7573251,25.5356589 Z" stroke="none" fill="#000000" filter="url(#i95)"></path><g clip-path="url(#i98)"><polygon points="0,3.77475828e-14 35.3741518,3.77475828e-14 35.3741518,27.5679662 0,27.5679662 0,3.77475828e-14" stroke="none" fill="url(#i99)"></polygon></g></g><g transform="translate(0.0 33.07848769484353)"><path d="M36.0055942,25.0131209 C41.1518353,20.2725812 38.3425621,10.7007062 30.7687884,2.67767921 C25.719606,-2.67100546 15.4633432,-0.00666127514 0,10.6707118 C4.57698594,10.0214754 9.39007015,12.3711995 14.4392526,17.7198842 C22.0130263,25.7429112 30.8593532,29.7536606 36.0055942,25.0131209 Z" stroke="none" fill="#000000" filter="url(#i100)"></path><g clip-path="url(#i103)"><polygon points="0,0 38.6224209,0 38.6224209,27.0454283 0,27.0454283 0,0" stroke="none" fill="url(#i104)"></polygon></g></g><g transform="translate(92.94771485781351 26.36273354834589)"><path d="M1.79604523,23.2345851 C-2.63222856,17.8326787 1.4982657,8.74017325 10.1286789,1.83646239 C15.8822877,-2.76601152 25.6633636,1.2824266 39.4719065,13.9817767 C35.030933,12.7096182 29.9336418,14.3747758 24.180033,18.9772497 C15.5496199,25.8809606 6.22431903,28.6364914 1.79604523,23.2345851 Z" stroke="none" fill="#000000" filter="url(#i105)"></path><g clip-path="url(#i108)"><polygon points="2.36921593e-13,1.99840144e-14 39.4719065,1.99840144e-14 39.4719065,26.0843474 2.36921593e-13,26.0843474 2.36921593e-13,1.99840144e-14" stroke="none" fill="url(#i109)"></polygon></g></g><g transform="translate(0.810541384872522 39.96806549520072)"><path d="M53.3077927,27.1673299 C58.4591247,25.520426 50.7990876,6.23379626 37.2282718,0.817563609 C28.1810612,-2.79325816 15.7716373,5.55648836 0,25.8668032 C8.74665294,22.8090348 17.6435847,23.0855615 26.6907953,26.6963833 C40.2616111,32.1126159 48.1564607,28.8142338 53.3077927,27.1673299 Z" stroke="none" fill="#000000" filter="url(#i110)"></path><g clip-path="url(#i113)"><polygon points="0,3.9634962e-14 54.9224644,3.9634962e-14 54.9224644,29.6780382 0,29.6780382 0,3.9634962e-14" stroke="none" fill="url(#i114)"></polygon></g></g><g transform="translate(75.76043525299522 38.42082334657829)"><path d="M1.98966664,29.1956917 C-3.30771513,28.089717 2.26951868,8.11779469 15.1928662,1.32996113 C23.8084313,-3.19526125 37.0334148,3.82739387 54.8678167,22.3979265 C45.8455169,20.2600555 37.0265846,21.4537312 28.4110195,25.9789536 C15.487672,32.7667871 7.28704841,30.3016664 1.98966664,29.1956917 Z" stroke="none" fill="#000000" filter="url(#i115)"></path><g clip-path="url(#i118)"><polygon points="3.93018951e-14,7.97140132e-14 54.8678167,7.97140132e-14 54.8678167,30.5543606 3.93018951e-14,30.5543606 3.93018951e-14,7.97140132e-14" stroke="none" fill="url(#i119)"></polygon></g></g><g transform="translate(50.04769204625883 63.90307139727366)"><path d="M10.2149335,2.19608538 C24.3481781,6.01914577 8.17116899,1.62490475 31.1392531,0 C27.6093026,18.0619543 18.9681978,23.7618256 17.773645,25.465988 C16.5790923,27.1701505 4.9927692,19.9797891 2.10109929,13.5505749 C0.0897662639,9.07866378 -3.91831117,-1.62697501 10.2149335,2.19608538 Z" stroke="none" fill="#000000" filter="url(#i120)"></path><g clip-path="url(#i123)"><polygon points="7.86037901e-14,0 31.1392531,0 31.1392531,25.7201018 7.86037901e-14,25.7201018 7.86037901e-14,0" stroke="none" fill="url(#i124)"></polygon></g></g><g transform="translate(35.07244309667294 0.7335700993739032)"><path d="M22.2613028,61.1645152 C32.575696,59.1840019 36.6236556,44.5510667 33.3828553,28.0815144 C31.2223218,17.1018129 23.5032501,7.74130807 10.2256401,0 C1.68418493,11.9308853 -1.5062759,23.3861788 0.654257613,34.3658803 C3.89505788,50.8354326 11.9469097,63.1450284 22.2613028,61.1645152 Z" stroke="none" fill="#000000" filter="url(#i125)"></path><g clip-path="url(#i128)"><polygon points="-3.16191517e-13,0 34.4750769,0 34.4750769,61.3738812 -3.16191517e-13,61.3738812 -3.16191517e-13,0" stroke="none" fill="url(#i129)"></polygon></g></g><g transform="translate(65.7399732366703 0.0)"><path d="M12.7090257,61.8448686 C23.1381493,63.1098186 31.5655263,50.428734 33.6354193,33.7759853 C35.0153479,22.6741529 30.6022684,11.4154911 20.3961807,0 C8.54050248,8.73961609 1.92269907,18.6603403 0.542770414,29.7621728 C-1.52712257,46.4149214 2.27990207,60.5799185 12.7090257,61.8448686 Z" stroke="none" fill="#000000" filter="url(#i130)"></path><g clip-path="url(#i133)"><polygon points="-1.57762692e-13,0 33.8819496,0 33.8819496,61.9318736 -1.57762692e-13,61.9318736 -1.57762692e-13,0" stroke="none" fill="url(#i134)"></polygon></g></g><g transform="translate(58.54992683794536 7.596034183289632)"><path d="M8.34165913,59.4045168 C19.6824209,65.3611161 34.001443,56.2490065 42.6112673,40.2533627 C48.3511502,29.5896002 47.5863172,16.1718126 40.3167683,0 C23.5960721,3.57122367 12.3657826,10.6887168 6.62589972,21.3524793 C-1.98392463,37.348123 -2.99910266,53.4479175 8.34165913,59.4045168 Z" stroke="none" fill="#000000" filter="url(#i135)"></path><g clip-path="url(#i138)"><polygon points="4.08562073e-14,0 46.4100023,0 46.4100023,61.2393943 4.08562073e-14,61.2393943 4.08562073e-14,0" stroke="none" fill="url(#i139)"></polygon></g></g><g transform="translate(26.805479264865436 10.459407878848726)"><path d="M39.5956822,57.0564865 C50.4881876,50.3329339 49.6591521,33.5271696 39.9407535,18.1637717 C36.6619248,12.9804126 26.653117,12.6008186 20.4716133,9.56249005 C16.4495565,7.58557141 10.7935378,4.39807473 3.50355725,0 C-1.72591467,16.0899175 -1.10118443,29.2560089 5.37774797,39.4982742 C15.0961466,54.8616722 28.7031768,63.780039 39.5956822,57.0564865 Z" stroke="none" fill="#000000" filter="url(#i140)"></path><g clip-path="url(#i143)"><polygon points="1.67421632e-13,0 47.4983716,0 47.4983716,59.3252758 1.67421632e-13,59.3252758 1.67421632e-13,0" stroke="none" fill="url(#i144)"></polygon></g></g><g transform="translate(46.34311772726505 0.7356230119996852)"><path d="M19.59938,67.8383483 C32.4435872,67.8383483 40.7559496,53.1522769 40.7559496,35.0360899 C40.7559496,22.9586318 33.7037598,11.2799352 19.59938,0 C6.53312668,11.2799352 0,22.9586318 0,35.0360899 C0,53.1522769 6.75517289,67.8383483 19.59938,67.8383483 Z" stroke="none" fill="#000000" filter="url(#i145)"></path><g clip-path="url(#i148)"><polygon points="0,0 40.7559496,0 40.7559496,67.8383483 0,67.8383483 0,0" stroke="none" fill="url(#i149)"></polygon></g></g></g></g></g></svg>